<svg width="194" height="169" viewBox="0 0 194 169" fill="none" xmlns="http://www.w3.org/2000/svg">
<path d="M97.6426 73.7529C91.7919 64.6064 98.3918 52.6122 109.249 52.6596L154.927 52.859C171.548 52.9315 181.513 71.3545 172.478 85.3052L130.872 149.546C124.964 158.668 111.61 158.65 105.727 149.512C102.482 144.472 102.558 137.982 105.919 133.019L124.355 105.798C131.767 94.8533 123.927 80.074 110.708 80.074H109.19C104.515 80.074 100.162 77.6912 97.6426 73.7529Z" fill="url(#paint0_linear_1209:1266)" stroke="#181818" stroke-width="5.25498"/>
<path d="M95.7405 95.2471C101.591 104.394 94.9913 116.388 84.1337 116.34L38.4564 116.141C21.8356 116.068 11.87 97.6455 20.9053 83.6948L62.5114 19.4537C68.4193 10.3317 81.7736 10.3502 87.6562 19.4884C90.9007 24.5284 90.825 31.018 87.4638 35.981L69.0282 63.2022C61.616 74.1467 69.4565 88.926 82.6748 88.926H84.1936C88.8686 88.926 93.2214 91.3088 95.7405 95.2471Z" fill="url(#paint1_linear_1209:1266)" stroke="#181818" stroke-width="5.25498"/>
<defs>
<linearGradient id="paint0_linear_1209:1266" x1="138.731" y1="169" x2="138.731" y2="52.5497" gradientUnits="userSpaceOnUse">
<stop offset="0.145833" stop-color="#4167FF"/>
<stop offset="0.729167" stop-color="#51E3C0"/>
<stop offset="1" stop-color="#09F9BF"/>
</linearGradient>
<linearGradient id="paint1_linear_1209:1266" x1="54.6518" y1="0" x2="54.6518" y2="116.45" gradientUnits="userSpaceOnUse">
<stop stop-color="#FF28A9"/>
<stop offset="1" stop-color="#FEAD05"/>
</linearGradient>
</defs>
</svg>
